<svg xmlns="http://www.w3.org/2000/svg" viewBox="0 0 810.44 274.4"><title>Asset 1</title><g id="Layer_2" data-name="Layer 2"><g id="Layer_1-2" data-name="Layer 1"><path d="M41.7,176.22q5.17-3.33,14.77-3.33,11.43,0,19.65,4.34a39.35,39.35,0,0,1,14.3,13.56l17.9-20.67Q97.81,158.5,85.53,153.33t-29.62-5.16q-16.23,0-28.14,5.07T9.69,167.36a35.37,35.37,0,0,0-6.18,20.48q0,11.44,5.62,18.82T25,218.38a136.06,136.06,0,0,0,25.93,7.47q12.74,2.4,18.18,5.08t5.44,6.92q0,5.34-5.08,8.21t-15.22,2.86q-12.73,0-21.77-4.06t-16.24-14L0,253a58.09,58.09,0,0,0,22.33,15.59q12.92,5.07,33.58,5.07a74.54,74.54,0,0,0,26.48-4.42q11.72-4.44,18.36-12.92a31.68,31.68,0,0,0,6.65-20.11q0-16.06-10.8-24.92T60.52,197.8q-13.1-2.38-18.54-5.26t-5.44-7.47Q36.54,179.54,41.7,176.22Z"/><path d="M164,177.69q-23.06,0-35.61,12.55t-12.55,35.43q0,22.88,12.83,35.43t37,12.54q16.25,0,27.41-6.18a31,31,0,0,0,15-18l-25.47-8.12a12.7,12.7,0,0,1-5.81,7.57q-4.34,2.58-11.17,2.58-8.12,0-13-4.06t-6.37-12.73h62.92a47.5,47.5,0,0,0,.93-10.33q0-22.15-11.91-34.42T164,177.69Zm-17.9,40q2.78-18.07,17.72-18.08,14.76,0,17,18.08Z"/><path d="M283.62,177.69a36.1,36.1,0,0,0-19,4.89,31.8,31.8,0,0,0-12.55,14.67l-.92-17.71h-28V271.8h31.37V223.08q0-10.87,4.61-16.14a15.21,15.21,0,0,1,12-5.26q6.27,0,9.68,4T284.17,219V271.8h31.37V210.35q0-15.67-8.67-24.17T283.62,177.69Z"/><path d="M363.51,200.57q3.69-2,10.34-2a33.29,33.29,0,0,1,14.58,3,27.21,27.21,0,0,1,10.51,9.41L415.18,195a38.51,38.51,0,0,0-16.33-13q-10.07-4.34-25.93-4.34-14.39,0-24.45,4.34t-15,11.35a25.27,25.27,0,0,0-5,14.94q0,11.63,8.77,18.64T366.65,238q9.23,1.84,13,3.78c2.52,1.3,3.78,2.8,3.78,4.52q0,3-3.69,4.71t-10.15,1.75q-19.37,0-27.31-13.1l-16.23,17.72q13.28,16.23,45,16.23,21.41,0,32.66-8.39T415,243.38q0-12-8.95-18.91T376.8,214q-9.41-1.84-13.19-3.78t-3.79-4.71Q359.82,202.61,363.51,200.57Z"/><path d="M526.63,251.32q-4.8,0-6.64-2.59t-1.85-8.85V179.54H486.77V234c-.62,4.42-2,7.91-4.24,10.44q-4.61,5.25-12.36,5.25c-4.31,0-7.51-1.22-9.6-3.69s-3.13-6.7-3.13-12.73V179.54H426.07v61.63q0,16.79,8.39,24.63t23.16,7.84q21.66,0,30.67-16.51a22.15,22.15,0,0,0,5.13,9.59q6.65,6.93,21.4,6.92a44.78,44.78,0,0,0,10.52-1.29A30.09,30.09,0,0,0,534,269l2-19.38A29.75,29.75,0,0,1,526.63,251.32Z"/><path d="M810.43,137.19,673.24,0,536.05,137.19h0l137.2,137.2,137.2-137.2h0ZM673.24,36.56l50.53,50.53a193.34,193.34,0,0,0-101.06,0Zm-45,156.33a93.38,93.38,0,0,1,89.9,0l-45,45ZM737,174.06a118.85,118.85,0,0,0-127.55,0L574,138.59a168.34,168.34,0,0,1,198.5,0Z"/></g></g></svg>